<svg width="191" height="80" viewBox="0 0 191 80" fill="none" xmlns="http://www.w3.org/2000/svg">
<g clip-path="url(#clip0_380_7177)">
<path d="M39.3529 6.15332H20.894V24.6121H39.3529V6.15332Z" fill="#E0DCDD"/>
<path d="M39.3529 24.6123H20.894V43.0711H39.3529V24.6123Z" fill="#E0DCDD"/>
<path d="M39.3529 43.083H20.894V61.5418H39.3529V43.083Z" fill="#E0DCDD"/>
<path d="M39.3529 61.542H20.894V80.0008H39.3529V61.542Z" fill="#E0DCDD"/>
<path d="M19.3529 6.15332H0.894043V30.7651H19.3529V6.15332Z" fill="#E0DCDD"/>
<path d="M59.3529 6.15332H40.894V30.7651H59.3529V6.15332Z" fill="#E0DCDD"/>
<path d="M45.5057 0H27.0469V18.4588H45.5057V0Z" fill="#70FFB0"/>
<path d="M45.5057 18.459H27.0469V36.9178H45.5057V18.459Z" fill="#70FFB0"/>
<path d="M45.5057 36.918H27.0469V55.3768H45.5057V36.918Z" fill="#70FFB0"/>
<path d="M45.5057 55.3887H27.0469V73.8475H45.5057V55.3887Z" fill="#70FFB0"/>
<path d="M25.5057 0H7.04688V24.6118H25.5057V0Z" fill="#70FFB0"/>
<path d="M65.5057 0H47.0469V24.6118H65.5057V0Z" fill="#70FFB0"/>
<path d="M43.9647 1.54102H25.5059V19.9998H43.9647V1.54102Z" fill="#1ED9FF"/>
<path d="M43.9647 20H25.5059V38.4588H43.9647V20Z" fill="#1ED9FF"/>
<path d="M43.9647 38.459H25.5059V56.9178H43.9647V38.459Z" fill="#1ED9FF"/>
<path d="M43.9647 56.918H25.5059V75.3768H43.9647V56.918Z" fill="#1ED9FF"/>
<path d="M23.9647 1.54102H5.50586V26.1528H23.9647V1.54102Z" fill="#1ED9FF"/>
<path d="M63.9647 1.54102H45.5059V26.1528H63.9647V1.54102Z" fill="#1ED9FF"/>
<path d="M40.8941 4.61133H22.4353V23.0702H40.8941V4.61133Z" fill="#CF2A51"/>
<path d="M40.8941 23.082H22.4353V41.5409H40.8941V23.082Z" fill="#CF2A51"/>
<path d="M40.8941 41.541H22.4353V59.9998H40.8941V41.541Z" fill="#CF2A51"/>
<path d="M40.8941 60H22.4353V78.4588H40.8941V60Z" fill="#CF2A51"/>
<path d="M20.8941 4.61133H2.4353V29.2231H20.8941V4.61133Z" fill="#CF2A51"/>
<path d="M60.8941 4.61133H42.4353V29.2231H60.8941V4.61133Z" fill="#CF2A51"/>
<path d="M42.4351 3.08203H23.9763V21.5409H42.4351V3.08203Z" fill="#F7E483"/>
<path d="M42.4351 21.541H23.9763V39.9998H42.4351V21.541Z" fill="#F7E483"/>
<path d="M42.4351 40H23.9763V58.4588H42.4351V40Z" fill="#F7E483"/>
<path d="M42.4351 58.459H23.9763V76.9178H42.4351V58.459Z" fill="#F7E483"/>
<path d="M22.4351 3.08203H3.97632V27.6938H22.4351V3.08203Z" fill="#F7E483"/>
<path d="M62.4351 3.08203H43.9763V27.6938H62.4351V3.08203Z" fill="#F7E483"/>
<path d="M62.5293 42.3525L72.5411 62.5761L82.5058 42.3525H92.3175V76.929H84.3293L84.2822 55.0349L75.4587 73.4819H69.6352L60.7528 55.0349V76.929H52.7175V42.3525H62.5293Z" fill="#E0DCDD"/>
<path d="M107.023 67.8937C108.306 69.2114 109.929 69.8702 111.906 69.8702C113.882 69.8702 115.412 69.2231 116.612 67.9172C117.812 66.6231 118.412 64.8702 118.412 62.6702V42.3525H127.435V62.6702C127.435 65.6584 126.8 68.2819 125.541 70.5408C124.271 72.7878 122.471 74.529 120.118 75.7408C117.765 76.9525 115.012 77.5643 111.859 77.5643C108.706 77.5643 105.929 76.9525 103.553 75.7408C101.165 74.529 99.3294 72.7878 98.0235 70.5408C96.7294 68.2937 96.0706 65.6702 96.0706 62.6702V42.3525H105.094V62.6702C105.094 64.8349 105.741 66.5878 107.023 67.8937Z" fill="#E0DCDD"/>
<path d="M140.282 42.3525V69.2349H154.929V76.929H131.259V42.3525H140.282Z" fill="#E0DCDD"/>
<path d="M177.423 42.3525V49.7996H167.07V76.929H158.047V49.7996H147.788V42.3525H177.435H177.423Z" fill="#E0DCDD"/>
<path d="M190.106 42.3525V76.929H181.082V42.3525H190.106Z" fill="#E0DCDD"/>
</g>
<defs>
<clipPath id="clip0_380_7177">
<rect width="189.212" height="80" fill="white" transform="translate(0.894043)"/>
</clipPath>
</defs>
</svg>
