<svg width="191" height="80" viewBox="0 0 191 80" fill="none" xmlns="http://www.w3.org/2000/svg">
<g clip-path="url(#clip0_322_3724)">
<path d="M39.3529 6.15283H20.894V24.6117H39.3529V6.15283Z" fill="#231F20"/>
<path d="M39.3529 24.6118H20.894V43.0706H39.3529V24.6118Z" fill="#231F20"/>
<path d="M39.3529 43.082H20.894V61.5409H39.3529V43.082Z" fill="#231F20"/>
<path d="M39.3529 61.541H20.894V79.9998H39.3529V61.541Z" fill="#231F20"/>
<path d="M19.3529 6.15283H0.894043V30.7646H19.3529V6.15283Z" fill="#231F20"/>
<path d="M59.3529 6.15283H40.894V30.7646H59.3529V6.15283Z" fill="#231F20"/>
<path d="M45.5057 0H27.0469V18.4588H45.5057V0Z" fill="#56FFA2"/>
<path d="M45.5057 18.459H27.0469V36.9178H45.5057V18.459Z" fill="#56FFA2"/>
<path d="M45.5057 36.9175H27.0469V55.3763H45.5057V36.9175Z" fill="#56FFA2"/>
<path d="M45.5057 55.3882H27.0469V73.847H45.5057V55.3882Z" fill="#56FFA2"/>
<path d="M25.5057 0H7.04688V24.6118H25.5057V0Z" fill="#56FFA2"/>
<path d="M65.5057 0H47.0469V24.6118H65.5057V0Z" fill="#56FFA2"/>
<path d="M43.9647 1.54102H25.5059V19.9998H43.9647V1.54102Z" fill="#04D6FF"/>
<path d="M43.9647 20H25.5059V38.4588H43.9647V20Z" fill="#04D6FF"/>
<path d="M43.9647 38.4585H25.5059V56.9173H43.9647V38.4585Z" fill="#04D6FF"/>
<path d="M43.9647 56.9175H25.5059V75.3763H43.9647V56.9175Z" fill="#04D6FF"/>
<path d="M23.9647 1.54102H5.50586V26.1528H23.9647V1.54102Z" fill="#04D6FF"/>
<path d="M63.9647 1.54102H45.5059V26.1528H63.9647V1.54102Z" fill="#04D6FF"/>
<path d="M40.8941 4.61182H22.4353V23.0706H40.8941V4.61182Z" fill="#BA2649"/>
<path d="M40.8941 23.0825H22.4353V41.5413H40.8941V23.0825Z" fill="#BA2649"/>
<path d="M40.8941 41.541H22.4353V59.9998H40.8941V41.541Z" fill="#BA2649"/>
<path d="M40.8941 60H22.4353V78.4588H40.8941V60Z" fill="#BA2649"/>
<path d="M20.8941 4.61182H2.4353V29.2236H20.8941V4.61182Z" fill="#BA2649"/>
<path d="M60.8941 4.61182H42.4353V29.2236H60.8941V4.61182Z" fill="#BA2649"/>
<path d="M42.4351 3.08252H23.9763V21.5413H42.4351V3.08252Z" fill="#F6DF6B"/>
<path d="M42.4351 21.5415H23.9763V40.0003H42.4351V21.5415Z" fill="#F6DF6B"/>
<path d="M42.4351 40H23.9763V58.4588H42.4351V40Z" fill="#F6DF6B"/>
<path d="M42.4351 58.459H23.9763V76.9178H42.4351V58.459Z" fill="#F6DF6B"/>
<path d="M22.4351 3.08252H3.97632V27.6943H22.4351V3.08252Z" fill="#F6DF6B"/>
<path d="M62.4351 3.08252H43.9763V27.6943H62.4351V3.08252Z" fill="#F6DF6B"/>
<path d="M62.5293 42.353L72.5411 62.5766L82.5058 42.353H92.3175V76.9295H84.3293L84.2822 55.0354L75.4587 73.4824H69.6352L60.7528 55.0354V76.9295H52.7175V42.353H62.5293Z" fill="#231F20"/>
<path d="M107.023 67.8942C108.306 69.2119 109.929 69.8707 111.906 69.8707C113.882 69.8707 115.412 69.2236 116.612 67.9177C117.812 66.6236 118.412 64.8707 118.412 62.6707V42.353H127.435V62.6707C127.435 65.6589 126.8 68.2824 125.541 70.5413C124.271 72.7883 122.471 74.5295 120.118 75.7413C117.765 76.953 115.012 77.5648 111.859 77.5648C108.706 77.5648 105.929 76.953 103.553 75.7413C101.165 74.5295 99.3294 72.7883 98.0235 70.5413C96.7294 68.2942 96.0706 65.6707 96.0706 62.6707V42.353H105.094V62.6707C105.094 64.8354 105.741 66.5883 107.023 67.8942Z" fill="#231F20"/>
<path d="M140.282 42.353V69.2354H154.929V76.9295H131.259V42.353H140.282Z" fill="#231F20"/>
<path d="M177.423 42.353V49.8001H167.07V76.9295H158.047V49.8001H147.788V42.353H177.435H177.423Z" fill="#231F20"/>
<path d="M190.106 42.353V76.9295H181.082V42.353H190.106Z" fill="#231F20"/>
</g>
<defs>
<clipPath id="clip0_322_3724">
<rect width="189.212" height="80" fill="white" transform="translate(0.894043)"/>
</clipPath>
</defs>
</svg>
